<svg xmlns="http://www.w3.org/2000/svg" width="88" height="88" viewBox="0 0 88 88" fill="none">
  <path d="M44 0C53.2919 1.10805e-07 62.3453 2.94162 69.8625 8.40325C77.3798 13.8649 82.9751 21.5661 85.8465 30.4033C88.7178 39.2404 88.7178 48.7596 85.8465 57.5968C82.9751 66.4339 77.3798 74.1351 69.8625 79.5967C62.3453 85.0584 53.2919 88 44 88C34.7081 88 25.6547 85.0584 18.1374 79.5967C10.6202 74.1351 5.02486 66.4339 2.15351 57.5967C-0.717838 48.7596 -0.717837 39.2404 2.15352 30.4032L13.8769 34.2124C11.81 40.5738 11.81 47.4262 13.8769 53.7876C15.9438 60.149 19.9716 65.6927 25.3829 69.6242C30.7942 73.5558 37.3113 75.6733 44 75.6733C50.6887 75.6733 57.2058 73.5558 62.6171 69.6242C68.0284 65.6927 72.0562 60.149 74.1231 53.7876C76.19 47.4262 76.19 40.5738 74.1231 34.2124C72.0562 27.851 68.0284 22.3073 62.6171 18.3758C57.2058 14.4442 50.6887 12.3267 44 12.3267V0Z" fill="url(#paint0_linear_429_1234)"/>
  <defs>
    <linearGradient id="paint0_linear_429_1234" x1="44" y1="0" x2="44" y2="88" gradientUnits="userSpaceOnUse">
      <stop stop-color="#FF4801"/>
      <stop offset="1" stop-color="#FF8556"/>
    </linearGradient>
  </defs>
</svg>