<svg width="296" height="106" viewBox="0 0 296 106" fill="none" xmlns="http://www.w3.org/2000/svg">
<path d="M41.5655 62.0975L33.9153 57.6364C33.1077 57.1655 33.1635 55.9806 34.0118 55.5876L66.4798 40.5471C66.8224 40.3884 67.2209 40.4069 67.5473 40.5966L98.1645 58.3916C98.9738 58.8619 98.9184 60.0487 98.0688 60.4416L88.4561 64.8871L65.5445 51.5482C65.218 51.3582 64.8193 51.3395 64.4765 51.4982L54.2163 56.2494C53.7917 56.446 53.7641 57.0392 54.1687 57.2743L74.7225 69.2179C75.5325 69.6885 75.4763 70.8764 74.6256 71.2686L64.9977 75.7062L41.605 62.0993C41.599 62.0958 41.5916 62.0954 41.5853 62.0984C41.5789 62.1013 41.5715 62.101 41.5655 62.0975Z" fill="url(#paint0_linear_227_2182)" fill-opacity="0.5"/>
<path d="M41.5655 62.0975L33.9153 57.6364C33.1077 57.1655 33.1635 55.9806 34.0118 55.5876L66.4798 40.5471C66.8224 40.3884 67.2209 40.4069 67.5473 40.5966L98.1645 58.3916C98.9738 58.8619 98.9184 60.0487 98.0688 60.4416L88.4561 64.8871L65.5445 51.5482C65.218 51.3582 64.8193 51.3395 64.4765 51.4982L54.2163 56.2494C53.7917 56.446 53.7641 57.0392 54.1687 57.2743L74.7225 69.2179C75.5325 69.6885 75.4763 70.8764 74.6256 71.2686L64.9977 75.7062L41.605 62.0993C41.599 62.0958 41.5916 62.0954 41.5853 62.0984C41.5789 62.1013 41.5715 62.101 41.5655 62.0975Z" fill="white" fill-opacity="0.2"/>
<path d="M56.7745 35.1954L47.9774 39.2497C47.1271 39.6416 47.0704 40.8285 47.8794 41.2998L64.1213 50.7602C64.6545 51.0708 64.9827 51.6412 64.9831 52.2584L64.998 75.7061L75.6232 70.8093C76.2385 70.5258 76.6325 69.91 76.6321 69.2324L76.6179 46.8576C76.6175 46.2395 76.2883 45.6682 75.7537 45.358L58.3716 35.2705C57.8832 34.9871 57.2874 34.9591 56.7745 35.1954Z" fill="url(#paint1_linear_227_2182)"/>
<path d="M80.2332 24.377L71.4362 28.4313C70.5859 28.8231 70.5291 30.0101 71.3381 30.4813L87.8671 40.1089C88.2226 40.316 88.4413 40.6963 88.4416 41.1077L88.4567 64.8877L99.4184 59.8358C99.8287 59.6468 100.091 59.2362 100.091 58.7845L100.077 36.0392C100.076 35.421 99.7471 34.8498 99.2125 34.5396L81.8304 24.4521C81.3419 24.1687 80.7461 24.1406 80.2332 24.377Z" fill="url(#paint2_linear_227_2182)"/>
<path d="M32 95.5864C32 92.3695 32.719 89.9343 34.1571 88.281C35.6041 86.6186 37.654 85.7874 40.3068 85.7874C42.9597 85.7874 45.0096 86.6186 46.4566 88.281C47.9036 89.9343 48.6271 92.3695 48.6271 95.5864C48.6271 98.8034 47.9036 101.243 46.4566 102.905C45.0096 104.559 42.9597 105.385 40.3068 105.385C37.654 105.385 35.6041 104.559 34.1571 102.905C32.719 101.243 32 98.8034 32 95.5864ZM35.8319 98.4844C35.8319 99.1134 35.9525 99.666 36.1936 100.142C36.4348 100.619 36.7563 101.023 37.1583 101.355C37.5602 101.688 38.0292 101.935 38.5651 102.097C39.101 102.258 39.6816 102.339 40.3068 102.339C40.9321 102.339 41.5127 102.258 42.0486 102.097C42.5935 101.935 43.0669 101.688 43.4688 101.355C43.8708 101.023 44.1878 100.619 44.4201 100.142C44.6612 99.657 44.7818 99.1044 44.7818 98.4844V92.6885C44.7818 92.0595 44.6612 91.5069 44.4201 91.0306C44.1878 90.5544 43.8708 90.15 43.4688 89.8175C43.0669 89.4851 42.5935 89.2379 42.0486 89.0762C41.5127 88.9055 40.9321 88.8201 40.3068 88.8201C39.6816 88.8201 39.101 88.9055 38.5651 89.0762C38.0292 89.2379 37.5602 89.4851 37.1583 89.8175C36.7563 90.15 36.4348 90.5544 36.1936 91.0306C35.9525 91.5069 35.8319 92.0595 35.8319 92.6885V98.4844Z" fill="url(#paint3_linear_227_2182)"/>
<path d="M56.9597 104.968V86.1917H62.3055L67.8792 100.493H67.9863V86.1917H71.5369V104.968H66.1776L60.604 90.6397H60.4968V104.968H56.9597Z" fill="url(#paint4_linear_227_2182)"/>
<path d="M80.6733 104.968V86.1917H93.5087V89.2379H84.2372V93.8477H92.2493V96.8804H84.2372V101.935H93.5087V104.968H80.6733Z" fill="url(#paint5_linear_227_2182)"/>
<path d="M34.026 88.1668L34.026 88.1669C32.55 89.8639 31.8262 92.3467 31.8262 95.5864C31.8262 98.8262 32.55 101.313 34.0257 103.019L34.0263 103.02C35.5131 104.719 37.6153 105.559 40.3068 105.559C42.9984 105.559 45.1006 104.719 46.5874 103.02L46.5877 103.02C48.0725 101.314 48.8009 98.8264 48.8009 95.5864C48.8009 92.3467 48.0726 89.8637 46.5876 88.1667C45.1009 86.4588 42.9987 85.6136 40.3068 85.6136C37.6149 85.6136 35.5127 86.4588 34.026 88.1668ZM41.9991 101.93L41.9984 101.93C41.4805 102.087 40.917 102.165 40.3068 102.165C39.6967 102.165 39.1332 102.087 38.6153 101.93C38.0999 101.775 37.6519 101.538 37.2691 101.221C36.886 100.905 36.5793 100.519 36.3487 100.064C36.1219 99.6158 36.0057 99.0909 36.0057 98.4844V92.6885C36.0057 92.0819 36.1219 91.5571 36.3487 91.1091C36.5793 90.6537 36.886 90.2683 37.2691 89.9515C37.6519 89.6348 38.0999 89.3981 38.6153 89.2426L38.6153 89.2426L38.6178 89.2418C39.1349 89.0771 39.6975 88.9939 40.3068 88.9939C40.9162 88.9939 41.4788 89.0771 41.9959 89.2418L41.9958 89.2418L41.9991 89.2428C42.5236 89.3985 42.9757 89.6352 43.358 89.9515C43.7406 90.2679 44.0423 90.6525 44.2639 91.1068L44.2638 91.1068L44.265 91.1091C44.4918 91.5571 44.608 92.0819 44.608 92.6885V98.4844C44.608 99.0814 44.492 99.607 44.2644 100.065L44.2639 100.066C44.0423 100.52 43.7406 100.905 43.358 101.221C42.9757 101.538 42.5236 101.774 41.9991 101.93ZM56.7859 104.968V105.141H56.9597H60.4968H60.6706V104.968V91.2904L66.0156 105.031L66.0587 105.141H66.1776H71.5369H71.7107V104.968V86.1917V86.0179H71.5369H67.9863H67.8125V86.1917V99.8432L62.4675 86.1286L62.4243 86.0179H62.3055H56.9597H56.7859V86.1917V104.968ZM80.4995 104.968V105.141H80.6733H93.5087H93.6825V104.968V101.935V101.761H93.5087H84.411V97.0542H92.2493H92.4231V96.8804V93.8477V93.6739H92.2493H84.411V89.4117H93.5087H93.6825V89.2379V86.1917V86.0179H93.5087H80.6733H80.4995V86.1917V104.968Z" stroke="url(#paint6_linear_227_2182)" stroke-width="0.347606"/>
<path d="M101.626 104.482V104.656H101.8H113.28H113.454V104.482V101.449V101.276H113.28H105.541V85.7062V85.5324H105.368H101.8H101.626V85.7062V104.482ZM118.653 104.426L118.575 104.656H118.818H122.667H122.796L122.833 104.532L124.003 100.653H130.116L131.312 104.533L131.35 104.656H131.478H135.327H135.569L135.492 104.426L129.148 85.6505L129.108 85.5324H128.984H125.188H125.064L125.024 85.6503L118.653 104.426ZM140.784 85.5324H140.491L140.632 85.7894L146.847 97.1805V104.482V104.656H147.02H150.588H150.762V104.482V97.1805L156.977 85.7894L157.117 85.5324H156.824H152.841H152.735L152.686 85.6266L148.831 93.1171L144.976 85.6266L144.927 85.5324H144.821H140.784ZM163.851 104.482V104.656H164.025H176.873H177.046V104.482V101.449V101.276H176.873H167.766V96.5686H175.612H175.786V96.3948V93.3621V93.1883H175.612H167.766V88.9262H176.873H177.046V88.7524V85.7062V85.5324H176.873H164.025H163.851V85.7062V104.482ZM185.093 104.482V104.656H185.267H188.834H189.008V104.482V97.4447H191.011L194.891 104.565L194.94 104.656H195.044H199H199.299L199.151 104.396L194.982 97.0792C196.172 96.7105 197.117 96.0881 197.809 95.2083L197.809 95.2076C198.546 94.2615 198.906 93.0208 198.906 91.502C198.906 89.5092 198.421 87.9999 197.419 87.0112C196.417 86.014 194.889 85.5324 192.871 85.5324H185.267H185.093V85.7062V104.482ZM194.51 89.284L194.51 89.2841L194.514 89.2885C194.719 89.5097 194.843 89.9041 194.843 90.5181V92.4456C194.843 93.0477 194.708 93.4669 194.468 93.7348C194.232 93.999 193.867 94.1453 193.34 94.1453H189.008V88.9262H193.34C193.95 88.9262 194.319 89.0632 194.51 89.284ZM125.034 97.2724L127.11 90.4522L129.1 97.2724H125.034Z" fill="white" stroke="white" stroke-width="0.347606"/>
<defs>
<linearGradient id="paint0_linear_227_2182" x1="80.9819" y1="55.2558" x2="-8.54217" y2="38.1485" gradientUnits="userSpaceOnUse">
<stop stop-color="#1F1612"/>
<stop offset="1" stop-color="#1F1612" stop-opacity="0"/>
</linearGradient>
<linearGradient id="paint1_linear_227_2182" x1="61.2953" y1="34.8184" x2="61.2953" y2="75.7061" gradientUnits="userSpaceOnUse">
<stop stop-color="#FF4801"/>
<stop offset="1" stop-color="#FF8556"/>
</linearGradient>
<linearGradient id="paint2_linear_227_2182" x1="84.754" y1="24" x2="84.754" y2="64.8877" gradientUnits="userSpaceOnUse">
<stop stop-color="#FF4801"/>
<stop offset="1" stop-color="#FF8556"/>
</linearGradient>
<linearGradient id="paint3_linear_227_2182" x1="62.7544" y1="85.7874" x2="62.7544" y2="105.385" gradientUnits="userSpaceOnUse">
<stop stop-color="#FF4801"/>
<stop offset="1" stop-color="#FF8556"/>
</linearGradient>
<linearGradient id="paint4_linear_227_2182" x1="62.7544" y1="85.7874" x2="62.7544" y2="105.385" gradientUnits="userSpaceOnUse">
<stop stop-color="#FF4801"/>
<stop offset="1" stop-color="#FF8556"/>
</linearGradient>
<linearGradient id="paint5_linear_227_2182" x1="62.7544" y1="85.7874" x2="62.7544" y2="105.385" gradientUnits="userSpaceOnUse">
<stop stop-color="#FF4801"/>
<stop offset="1" stop-color="#FF8556"/>
</linearGradient>
<linearGradient id="paint6_linear_227_2182" x1="62.7544" y1="85.7874" x2="62.7544" y2="105.385" gradientUnits="userSpaceOnUse">
<stop stop-color="#FF4801"/>
<stop offset="1" stop-color="#FF8556"/>
</linearGradient>
</defs>
</svg>
